<?xml version="1.0" encoding="utf-8"?>
<!-- Generator: Adobe Illustrator 17.1.0, SVG Export Plug-In . SVG Version: 6.00 Build 0)  -->
<!DOCTYPE svg PUBLIC "-//W3C//DTD SVG 1.1//EN" "http://www.w3.org/Graphics/SVG/1.1/DTD/svg11.dtd">
<svg version="1.1" id="Layer_1" xmlns="http://www.w3.org/2000/svg" xmlns:xlink="http://www.w3.org/1999/xlink" x="0px" y="0px"
	 viewBox="0 0 612 792" enable-background="new 0 0 612 792" xml:space="preserve">
<circle fill="#B1B3B5" cx="306" cy="396" r="306"/>
<path fill="#DEBCAD" d="M321.3,623.8v-27c5.3-7.6,17.7-24.4,30.1-40.9c2.2-16,8.1-38.7,4.5-36.8c-5,2.6-24.1,28.2-24.1,28.2
	s14.1-26.3,21.5-36.6c6.2-8.6,12.7-56.9,14.6-73.2c0.2-1.9,0.5-3.6,0.7-5.3v-0.2c-2.2,3.3-4.5,6.9-6.9,10.8
	c-17.9,27-55.5,27-55.5,27V702h4.8l24.1-78.2H321.3L321.3,623.8z"/>
<path fill="#A49892" d="M351.2,569.6c-1-2.4-0.7-7.6,0-13.6c-12.4,16.5-24.9,33.2-30.1,40.9v27h13.9L310.8,702
	c20.3-0.2,40.2-2.6,59.3-6.7c7.6-21.5,17.2-50.4,25.1-83.2C367,599.7,354.5,578.2,351.2,569.6L351.2,569.6z M329,608.3
	c0-4.1,3.3-7.2,7.4-7.2s7.4,3.1,7.4,7.2c0,4.1-3.3,7.2-7.4,7.2S329,612.4,329,608.3z M370.3,576.3c1,6,16.7,23.4,25.6,32.8
	c0.5-2.4,1.2-5,1.7-7.6C378.7,588.2,369.6,571,370.3,576.3z"/>
<path fill="#533721" d="M344,608.3c0-4.1-3.3-7.2-7.4-7.2s-7.4,3.1-7.4,7.2c0,4.1,3.3,7.2,7.4,7.2S344,612.4,344,608.3z"/>
<path fill="#36464C" d="M474.8,542.3c2.2,10.3,2.6,19.1,2.6,19.1c7.9,5.3,11.5,26.8,11.5,26.8c-2.9-8.8-22.7-17.2-22.7-17.2
	c10.3,17.9-5.3,53.1-5.3,53.1c-0.5-19.4-55.9-47.3-51.6-32.5c4.3,14.8,39.2,23.2,39.2,23.2c-21.5,2.4-38.5-4.8-50.9-13.4
	c-0.5,2.6-1.2,5-1.7,7.7c3.3,3.6,5.7,5.7,5.7,5.7c-2.2-0.7-4.3-1.7-6.5-2.6c-7.9,32.5-17.2,61.4-25.1,83.2
	c76.7-16.3,142.7-61.4,186.2-123.4c-1.4-0.5-2.9-1-4.5-1.2C533.1,566.7,502.7,554.5,474.8,542.3L474.8,542.3z"/>
<g id="XMLID_2_">
	<g>
		<path fill="#DEBCAD" d="M403.1,280.3c0,13.1-0.5,34.4-0.5,34.4c-4.8,35.1-14.1,76.3-15.8,83.9l-14.3,26.5
			c-2.4,4.1-3.8,6.7-4.1,6.7c-2.2,3.6-4.5,7.2-6.9,10.8c-18.2,27-55.5,27-55.5,27v-47.3c25.1,0,30.4-9.3,30.4-9.3
			c-6-2.2-6.5-3.6-12.2-8.8c-2.9-3.3-8.4-5-12.4-3.1c-2.9,2.4-5.7,1.9-5.7,1.9V199.7c0,0,22-5.7,28,6.5l2.9-1.2l1.4,3.1l7.6-1v3.1
			c0,0,11.2,0.5,18.4,6.2l1,1c10.5,33.5,29.4,54.7,35.6,61C402.3,279.6,403.1,280.3,403.1,280.3z M384.9,291.8
			c4.3,0.7-9.6-14.6-18.9-17c0,0-14.1-1.9-37.1,3.8c0,0-0.5,8.6,6.2,8.4c6.7-0.2,17.7-8.6,26.3-8.4
			C370.3,278.9,380.6,290.8,384.9,291.8z"/>
	</g>
</g>
<path fill="#DEBCAD" d="M385.1,291.8c4.3,1-9.6-14.6-18.9-17c0,0-14.1-1.9-37.1,3.8c0,0-0.2,8.6,6.2,8.4c6.7-0.2,17.7-8.6,26.3-8.4
	C370.3,278.9,380.8,291.1,385.1,291.8L385.1,291.8z"/>
<path fill="#DEBCAD" d="M336.4,413.2c-6-2.2-6.5-3.6-12.2-8.8c-3.1-3.3-8.4-5-12.4-3.1c-2.9,2.4-5.7,1.9-5.7,1.9v19.4
	C331.1,422.5,336.4,413.2,336.4,413.2L336.4,413.2z"/>
<path fill="#7E522F" d="M313.6,137.3l-3.8,7.4l11-3.8l-2.4,7.4c0,0,14.3-9.8,33.2-3.3l10.5,6c0,0-23.7-6.7-31.8-2.9
	c-8.1,3.8-12.2,6.2-12.2,6.2h20.3c0,0-9.1,4.5-7.4,4.5c1.4,0,39.7,0,52.1,11.2s14.1,20.1,14.1,20.1c0.2,0.2,0.5,0.7,1,1.7
	c11,18.6,40.9,34.9,40.9,34.9c-20.8-4.5-21.3-8.1-21.3-8.1s-1.7-7.6,0.5,7.2c1.9,14.8,22.7,30.6,22.7,30.6c-1.9,9.6,20.8,23,20.8,23
	c-10,4.3-25.6-4.3-25.6-4.3l11.2,8.1c-23.2-6.9-27.5-26.8-30.8-45.4c-2.6-15.8-15.1-39.2-18.6-45.9c-0.2-0.5-0.7-1.2-1-1.7
	c-0.2-0.2-15.1-21.3-30.4-23.2c-15.3-1.9-13.4-1-13.4-1s18.2,7.4,23.7,12.2c5.5,4.8,11.7,11.7,11.7,11.7s-19.8-12.9-26.1-12
	c-6.2,1-6,4.8-6,4.8s14.1,1.9,16.3,4.1c2.2,2.2-7.4,3.1-7.4,3.1s22.5-0.2,31.8,25.1c0,0-11.7-14.3-23.2-16c0,0,15.8,18.6,17.7,38.2
	c1.9,19.8,11.2,42.6,11.2,42.6s21.5,14.6,46.6,16c0,0,12.7,8.1,13.1,24.9l-6.5-10c0,0,3.6,30.1-0.5,43.5s-5.3,17.2-5.3,17.2
	s3.1-18.4-1.9-29.9l-0.5,17.9c0,0-5.3-16.7-10.3-21c0,0-6,19.4-16.5,32.8l-0.5-12.2l-13.6,16l2.4-7.9c0,0-7.9,22.7-23.4,31.8
	c-0.5,5.3-1.7,28,4.3,37.1c6.7,10.3,44,29.4,41.1,42.3c0,0-18.4-19.8-31.1-18.6c0,0,26.1,30.1,23.7,38.2s-4.3,9.1-4.3,9.1
	l-19.1-11.5c0,0-29.6,32.5-27.3,46.9c2.4,14.6,11.5,39.7,11.5,39.7s-28.7-35.6-22.5-49c6.5-13.6,16.5-40.2,16.5-40.2l-7.2,6.5
	l6.7-17.5l-7.2,6.5l-1.2-13.6l-6,10c0,0,7.4-32.8,7.9-60.2c-2.4,4.1-3.8,6.7-4.1,7.2s0,0,0,0.2c0,0.5-0.2,2.4-0.7,5.3
	c-1.9,16.3-8.4,64.5-14.6,73.2c-7.6,10.3-21.5,36.6-21.5,36.6s19.1-25.6,24.1-28.2c3.6-1.9-2.4,20.6-4.5,36.8
	c-0.7,6-1.2,11.2,0,13.6c3.3,8.6,15.8,29.9,44,42.6c2.2,1,4.3,1.7,6.5,2.6l-5.7-5.7c-8.8-9.1-24.6-26.5-25.6-32.8
	c-0.7-5,8.4,12,27.3,25.1c12.7,8.6,29.6,15.8,50.9,13.4c0,0-34.7-8.4-39.2-23.2c-4.5-14.8,51.2,12.9,51.6,32.5
	c0,0,15.5-35.1,5.3-53.1c0,0,20.1,8.4,22.7,17.2c0,0-3.6-21.3-11.5-26.8c0,0-0.5-8.8-2.6-19.1c-1.4-6.7-3.6-13.9-6.7-19.6
	c0,0,30.4-10.8,23.7-21.8s-20.8-41.6-21.3-55.7s3.1-25.1,7.9-39.2s-9.1-28.2-10.8-37.1s9.6-2.4,10.3-27s-2.4-61.9-7.2-69.6
	s-16.7-17.5-14.8-21.3s9.1-13.4,4.8-19.4c-4.3-6.2-10.8-10.3-12.4-17.5s-4.1-10.3-13.6-15.5c-9.6-5.3-48.3-46.9-57.9-58.1
	c-9.6-11.5-40.4-35.4-71.2-26.1v30.4L313.6,137.3z M449,376.2c-3.6,17.2-7.6,25.1,0.7,31.8c8.4,6.5,8.8,12.7,6.5,14.6
	c-2.4,2.2-18.4-2.9-19.6-14.6C435.3,396,449,376.2,449,376.2z M446.8,588.4c1.7-9.8-6.9-29.2-22-33.9s-19.1,16.3-19.1,16.3
	s-4.8-19.4,7.2-25.1s23.4-25.1,23.4-25.1l-6.7,17.7C459,555.7,446.8,588.4,446.8,588.4z M485.1,501.7c5.3,6.9-19.6,14.8-19.6,14.8
	c-9.1-12.4-17.5-41.6-19.8-50C451.4,484.9,480,495.2,485.1,501.7z"/>
<path fill="#7E522F" d="M345.9,210.5c0,0,11.2,0.5,18.4,6.2c0.2,0.2,0.7,0.5,1,1c0-0.2,0-0.2-0.2-0.5
	C361.7,205.7,345.9,210.5,345.9,210.5L345.9,210.5z M401.1,278.4c1.2,1.4,2.2,1.9,2.2,1.9S402.3,279.6,401.1,278.4z M334,206.4
	c0,0-8.4-17.2-28-11v4.5C306,199.7,328,194,334,206.4z M336.8,205.2l1.4,2.9l8.1-6.7L336.8,205.2z M347.4,190.4l-9.3-10l12.9,6.7
	c0,0-10.3-11.2-16.7-14.3l10.3,2.4c0,0-12.4-12.2-38.2-12.2v28C306,190.6,331.6,182.8,347.4,190.4z M345.9,207.1v3.3l8.8-4.5
	L345.9,207.1z"/>
<path fill="#502610" d="M334,206.4l2.9-1.2l9.6-3.8l-7.9,6.9l7.6-1l8.8-1.2l-8.8,4.5c0,0,15.8-4.8,19.4,6.7c0,0.2,0,0.2,0.2,0.5
	c10.5,33.5,29.4,54.5,35.6,61c1.2,1.2,2.2,1.9,2.2,1.9s-9.3-22.9-11.2-42.6c-1.9-19.8-17.7-38.2-17.7-38.2c11.5,1.7,23.2,16,23.2,16
	c-9.3-25.6-31.8-25.1-31.8-25.1s9.6-1.2,7.4-3.1c-2.2-1.9-16.3-4.1-16.3-4.1s-0.2-4.1,6-4.8c6.2-0.7,26.1,12,26.1,12
	s-6.2-6.9-11.7-11.7c-5.5-4.8-23.7-12.2-23.7-12.2s-1.9-1.2,13.4,1c15.3,1.9,30.1,22.9,30.4,23.2c0.2,0.2-1.4-8.8-14.1-20.1
	s-50.7-11.2-52.1-11.2s7.4-4.5,7.4-4.5h-20.3c0,0,4.3-2.6,12.2-6.2s31.8,2.9,31.8,2.9l-10.5-6c-18.9-6.2-33.2,3.3-33.2,3.3l2.4-7.4
	l-11,3.8l3.8-7.4l-7.6,7.4v17.9c25.8,0,38.2,12.2,38.2,12.2l-10.3-2.4c6.7,3.1,16.7,14.3,16.7,14.3l-12.9-6.7l9.3,10
	c-15.5-7.6-41.4,0.2-41.4,0.2v4.5C325.6,189,334,206.4,334,206.4L334,206.4z M387,398.6v1.2c15.5-9.1,23.4-31.8,23.4-31.8l-2.4,7.9
	l13.6-16l0.5,12.2c10.3-13.4,16.5-32.8,16.5-32.8c5.3,4.3,10.3,21,10.3,21l0.5-17.9c5.3,11.5,1.9,29.9,1.9,29.9s1.2-3.8,5.3-17.2
	c4.1-13.4,0.5-43.5,0.5-43.5l6.5,10c-0.5-16.7-13.1-24.9-13.1-24.9c-25.1-1.4-46.6-16-46.6-16c0,12.9-0.5,34.4-0.5,34.4
	C397.8,349.9,388.7,391.2,387,398.6L387,398.6z"/>
<path fill="#502610" d="M387,398.6l-14.3,26.5c-0.5,27.5-7.9,60.2-7.9,60.2l6-10L372,489l7.2-6.5l-6.7,17.5l7.2-6.5
	c0,0-10,26.8-16.5,40.2c-6.5,13.6,22.5,49,22.5,49s-9.1-25.1-11.5-39.7s27.3-46.9,27.3-46.9l19.1,11.5c0,0,1.9-1.2,4.3-9.1
	c2.4-8.1-23.7-38.2-23.7-38.2c12.7-1.2,31.1,18.6,31.1,18.6c2.9-12.9-34.4-32-41.1-42.3c-6-9.1-4.5-31.8-4.3-37.1
	C386.8,399.1,387,398.6,387,398.6L387,398.6z"/>
<path fill="#502610" d="M456.1,422.5c2.4-2.2,1.9-8.1-6.5-14.6c-8.4-6.5-4.3-14.6-0.7-31.8c0,0-13.6,19.8-12.4,31.8
	C437.7,419.7,453.7,424.4,456.1,422.5z M445.6,466.5c2.2,8.4,10.5,37.5,19.8,50c0,0,24.9-8.1,19.6-14.8
	C480,495.2,451.4,484.9,445.6,466.5z M445.6,466.5c-0.5-1.4-0.7-2.4-0.7-2.4C445.1,465.1,445.4,465.8,445.6,466.5z M447.5,283.2
	l-11.2-8.1c0,0,15.5,8.4,25.6,4.3c0,0-22.7-13.4-20.8-23c0,0-20.8-15.5-22.7-30.6c-1.9-14.8-0.5-7.2-0.5-7.2s0.5,3.3,21.3,8.1
	c0,0-29.9-16-40.9-34.9c3.6,6.7,15.8,29.9,18.6,45.9C420,256.4,424.3,276.2,447.5,283.2z M397.3,190.2c0.2,0.5,0.7,1.2,1,1.7
	C397.8,190.9,397.3,190.4,397.3,190.2z"/>
<path fill="#502610" d="M436.3,520.3c0,0-11.5,19.4-23.4,25.1s-7.2,25.1-7.2,25.1s4.1-21.3,19.1-16.3c15.1,4.8,23.7,24.4,22,33.9
	c0,0,12.2-32.8-17.2-50.4L436.3,520.3L436.3,520.3z"/>
<path fill="#DEBCAD" d="M250.5,442.9c-2.4-3.6-4.8-7.2-6.9-10.8s0,0,0,0.2c0.2,1.7,0.5,3.3,0.7,5.3c1.9,16.3,8.4,64.5,14.6,73.2
	c7.6,10.3,21.5,36.6,21.5,36.6s-19.1-25.6-24.1-28.2c-3.6-1.9,2.4,20.6,4.5,36.8c12.4,16.5,24.9,33.2,30.1,40.9v27h-13.9l24.1,78.2
	h4.8V469.9C306,469.9,268.7,469.9,250.5,442.9L250.5,442.9z"/>
<path fill="#89807C" d="M241.7,576.3c0.7-5-8.4,12-27.3,25.1c0.5,2.6,1.2,5,1.7,7.6C225,599.7,240.7,582.2,241.7,576.3z
	 M290.7,623.8v-27c-5.3-7.6-17.7-24.4-30.1-40.9c0.7,6,1.2,11.2,0,13.6c-3.3,8.6-15.8,29.9-44,42.6c7.9,32.5,17.2,61.4,25.1,83.2
	c19.1,4.1,39,6.5,59.3,6.7l-24.1-78.2H290.7L290.7,623.8z M275.6,601.4c4.1,0,7.4,3.1,7.4,7.2c0,4.1-3.3,7.2-7.4,7.2
	s-7.4-3.1-7.4-7.2C268,604.5,271.3,601.4,275.6,601.4z"/>
<path fill="#462C17" d="M275.6,615.5c4.1,0,7.4-3.1,7.4-7.2c0-4.1-3.3-7.2-7.4-7.2s-7.4,3.1-7.4,7.2
	C268,612.4,271.3,615.5,275.6,615.5z"/>
<path fill="#28373C" d="M210.4,614.7l5.7-5.7c-0.5-2.4-1.2-5-1.7-7.6c-12.7,8.6-29.6,15.8-50.9,13.4c0,0,34.7-8.4,39.2-23.2
	c4.3-14.8-51.2,12.9-51.6,32.5c0,0-15.5-35.1-5.3-53.1c0,0-20.1,8.4-22.7,17.2c0,0,3.6-21.3,11.5-26.8c0,0,0.5-8.8,2.6-19.1
	c-28,12.2-58.3,24.4-77.2,28.2c-1.4,0.2-2.9,0.7-4.5,1.2C99,633.6,165.2,678.8,241.7,695.1c-7.6-21.5-17.2-50.4-25.1-83.2
	C214.9,613.1,212.8,613.8,210.4,614.7L210.4,614.7z"/>
<g id="XMLID_1_">
	<g>
		<path fill="#DEBCAD" d="M306,422.5v47.6c0,0-37.5,0-55.5-27c-2.4-3.8-4.8-7.4-6.9-10.8c-0.2-0.5-1.7-3.1-4.1-7.2l-14.3-26.5
			c-1.9-7.4-11-48.8-15.8-83.9c0,0-0.5-21.5-0.5-34.4c0,0,33.2-23.7,40.9-28.7c22-13.1,56.2-51.6,56.2-51.6v203.2
			c0,0-2.9,0.5-5.7-1.9c-4.1-1.9-9.3-0.2-12.4,3.1c-5.7,5.3-6.2,6.7-12.2,8.8C275.6,413.2,280.9,422.5,306,422.5z M276.6,287
			c6.5,0.2,6.2-8.4,6.2-8.4c-22.9-5.7-37.1-3.8-37.1-3.8c-9.3,2.4-23.2,17.9-18.9,17c4.3-0.7,14.8-12.9,23.4-13.1
			C258.9,278.4,269.9,286.7,276.6,287z"/>
	</g>
</g>
<path fill="#DEBCAD" d="M276.8,287c6.7,0.2,6.2-8.4,6.2-8.4c-23-5.7-37.1-3.8-37.1-3.8c-9.3,2.4-23.2,17.7-18.9,17
	c4.3-1,14.6-12.9,23.4-13.1C259.1,278.4,270.1,286.7,276.8,287z"/>
<path fill="#DEBCAD" d="M300.3,401.3c-4.1-1.9-9.6-0.2-12.4,3.1c-5.7,5.3-6.2,6.7-12.2,8.8c0,0,5.3,9.3,30.4,9.3v-19.4
	C306,403.2,303.1,403.6,300.3,401.3z"/>
<path fill="#7E522F" d="M122.9,588c2.9-8.8,22.7-17.2,22.7-17.2c-10.3,17.9,5.3,53.1,5.3,53.1c0.5-19.4,55.9-47.3,51.6-32.5
	c-4.3,14.8-39.2,23.2-39.2,23.2c21.5,2.4,38.5-4.8,50.9-13.4c19.1-13.1,28-30.1,27.3-25.1c-1,6-16.7,23.4-25.6,32.8
	c-3.3,3.6-5.7,5.7-5.7,5.7c2.2-0.7,4.3-1.7,6.5-2.6c28.2-12.4,40.6-33.9,44-42.6c1-2.4,0.7-7.7,0-13.6c-2.2-16-8.1-38.7-4.5-36.8
	c5,2.6,24.1,28.2,24.1,28.2s-14.1-26.3-21.5-36.6c-6.2-8.6-12.7-56.9-14.6-73.2c-0.2-2.9-0.5-4.8-0.7-5.3v-0.2
	c-0.2-0.2-1.7-3.1-4.1-7.2c0.5,27.5,7.9,60.2,7.9,60.2l-6-10l-1.2,13.6l-7.2-6.5l6.7,17.5l-7.2-6.5c0,0,10,26.8,16.5,40.2
	c6.5,13.6-22.5,49-22.5,49s9.1-25.1,11.5-39.7c2.4-14.6-27.3-46.9-27.3-46.9l-19.1,11.5c0,0-1.9-1.2-4.3-9.1
	c-2.4-8.1,23.7-38.2,23.7-38.2c-12.7-1.2-31.1,18.6-31.1,18.6c-2.9-12.9,34.4-32,41.1-42.3c6-9.1,4.5-31.8,4.3-37.1
	c-15.5-9.1-23.4-31.8-23.4-31.8l2.4,7.9l-13.6-16l-0.5,12.2c-10.3-13.4-16.5-32.8-16.5-32.8c-5.3,4.3-10.3,21-10.3,21l-0.5-17.9
	c-5.3,11.5-1.9,29.9-1.9,29.9s-1.2-3.8-5.3-17.2c-4.1-13.4-0.5-43.5-0.5-43.5l-6.5,10c0.5-16.7,13.1-24.9,13.1-24.9
	c25.1-1.4,46.6-16,46.6-16s33.2-23.7,40.9-28.7c22-13.1,56.2-51.6,56.2-51.6v-4.5c0,0-10.5,6.9-33.5,28.7
	c-17.9,17.2-55.2,39.9-70,48.8c-2.2,1.4-4.3,2.6-6.5,3.8c0,0,2.4-1.4,6.5-3.8c22.9-14.8,56.7-49.5,56.7-49.5
	c-8.6,5.5-44.5,32.5-44.5,32.5c42.6-43.5,91.8-65,91.8-65v-28c0,0-28.7,0-82.5,24.9c0,0,34.4-23.7,46.4-27l-21.3,6
	c0,0,9.8-13.6,34.4-14.6l-7.6-6.5c0,0,21.3,2.4,25.1,7.7l-4.8-16l10.3,7.4v-30.1c-30.8-9.6-61.4,14.6-71.2,26.1
	c-9.6,11.2-48.3,52.8-57.9,58.1c-9.6,5.3-12,8.1-13.6,15.5c-1.7,7.2-7.9,11.5-12.4,17.5c-4.5,6,2.9,15.5,4.8,19.4
	s-10,13.6-14.8,21.3c-4.8,7.6-7.9,44.7-7.2,69.6c0.7,24.9,12,18.4,10.3,27c-1.7,8.8-15.5,23-10.8,37.1s8.4,25.1,7.9,39.2
	c-0.5,14.1-14.3,44.7-21.3,55.7s23.7,21.8,23.7,21.8c-3.1,5.7-5.3,12.9-6.7,19.6c-2.2,10.3-2.6,19.1-2.6,19.1
	C126.5,566.7,122.9,588,122.9,588z M170.7,256.4c0,0,20.8-15.5,22.7-30.6c1.9-15.1,0.5-7.2,0.5-7.2s-0.5,3.3-21.3,8.1
	c0,0,29.9-16,40.9-34.9c0.7-1.2,1-1.9,1-1.9c-0.2,0.7-0.7,1.2-1,1.9c-3.6,6.7-15.8,29.9-18.6,45.9c-3.1,18.6-7.6,38.5-30.8,45.4
	l11.2-8.1c0,0-15.5,8.4-25.6,4.3C149.9,279.3,172.8,265.9,170.7,256.4L170.7,256.4z M162.3,407.7c8.4-6.5,4.3-14.6,0.7-31.8
	c0,0,13.6,19.8,12.4,31.8c-1.2,11.7-17.2,16.7-19.6,14.6C153.5,420.4,154,414.4,162.3,407.7z M126.9,501.7
	c5-6.7,33.5-16.7,39.4-35.1c0.5-1.4,0.7-2.4,0.7-2.4c-0.2,0.7-0.5,1.4-0.7,2.4c-2.2,8.4-10.5,37.5-19.8,50
	C146.5,516.7,121.7,508.6,126.9,501.7z M175.7,520.3c0,0,11.5,19.4,23.4,25.1s7.2,25.1,7.2,25.1s-4.1-21.3-19.1-16.3
	c-15.1,4.8-23.7,24.4-22,33.9c0,0-12.2-32.8,17.2-50.4L175.7,520.3L175.7,520.3z"/>
<path fill="#502610" d="M225,398.6c-1.7-7.6-11-48.8-15.8-83.9c0,0-0.5-21.3-0.5-34.4c0,0-21.5,14.6-46.6,16c0,0-12.7,8.1-13.1,24.9
	l6.5-10c0,0-3.6,30.1,0.5,43.5s5.3,17.2,5.3,17.2S158,353.4,163,342l0.5,17.9c0,0,5.3-16.7,10.3-21c0,0,6,19.4,16.5,32.8l0.5-12.2
	l13.6,16l-2.4-7.9c0,0,7.9,22.7,23.4,31.8C225.2,399.1,225,398.6,225,398.6L225,398.6z"/>
<path fill="#502610" d="M225,398.6v1.2c0.5,5.3,1.7,28-4.3,37.1c-6.7,10.3-44,29.4-41.1,42.3c0,0,18.4-19.8,31.1-18.6
	c0,0-26.1,30.1-23.7,38.2s4.3,9.1,4.3,9.1l19.1-11.5c0,0,29.6,32.5,27.3,46.9c-2.4,14.6-11.5,39.7-11.5,39.7s28.7-35.6,22.5-49
	c-6.5-13.6-16.5-40.2-16.5-40.2l7.2,6.5l-6.7-17.5l7.2,6.5l1.2-13.6l6,10c0,0-7.4-32.8-7.9-60.2L225,398.6L225,398.6z"/>
<path fill="#502610" d="M175.5,407.7c1.2-11.7-12.4-31.8-12.4-31.8c3.6,17.2,7.6,25.1-0.7,31.8c-8.4,6.5-8.8,12.7-6.5,14.6
	C158.3,424.4,174.3,419.7,175.5,407.7z M166.4,466.5c-5.7,18.4-34.4,28.4-39.4,35.1c-5.3,6.9,19.6,14.8,19.6,14.8
	C155.6,504.3,164,474.9,166.4,466.5z M166.4,466.5c0.2-0.7,0.5-1.4,0.7-2.4C166.9,464.4,166.6,465.1,166.4,466.5z M213.7,191.8
	c0.5-0.7,0.7-1.2,1-1.9C214.7,190.2,214.4,190.6,213.7,191.8z M175.5,275.3l-11.2,8.1c23.2-6.9,27.5-26.8,30.8-45.4
	c2.6-15.8,15.1-39.2,18.6-45.9c-11,18.6-40.9,34.9-40.9,34.9c20.8-4.5,21.3-8.1,21.3-8.1s1.7-7.6-0.5,7.2
	c-2.2,14.8-22.7,30.6-22.7,30.6c1.9,9.6-20.8,22.9-20.8,22.9C159.9,283.6,175.5,275.3,175.5,275.3L175.5,275.3z"/>
<path fill="#502610" d="M165.2,588.4c-1.7-9.8,6.9-29.2,22-33.9c15.1-4.8,19.1,16.3,19.1,16.3s4.8-19.4-7.2-25.1
	s-23.4-25.1-23.4-25.1l6.7,17.7C153,555.7,165.2,588.4,165.2,588.4z M202.5,272.6c-4.1,2.4-6.5,3.8-6.5,3.8
	C198.2,275.3,200.3,274.1,202.5,272.6z M214.7,255.7c0,0,35.6-27,44.5-32.5c0,0-33.5,34.7-56.7,49.5c14.8-8.8,52.1-31.6,70-48.8
	c22.7-21.8,33.5-28.7,33.5-28.7v-4.5C306,190.6,256.8,212.2,214.7,255.7z M295.7,137.3l4.8,16c-4.1-5.3-25.1-7.7-25.1-7.7l7.6,6.5
	c-24.9,0.7-34.4,14.3-34.4,14.3l21.3-6.2c-12,3.3-46.4,27-46.4,27c53.8-24.4,82.5-24.6,82.5-24.6v-17.9L295.7,137.3z"/>
</svg>
